<svg xmlns="http://www.w3.org/2000/svg" viewBox="0 0 761.33 183.16"><defs><style>.cls-1{fill:#5d47af;}.cls-2{fill:#483789;}.cls-3{fill:#007fc0;}.cls-4{fill:#5671b0;}.cls-5{fill:#43a1aa;}.cls-6{fill:#808;}.cls-7{fill:#47116f;}.cls-8{fill:#83a6cc;}.cls-9{fill:#0067c1;}.cls-10{fill:#4c559e;}.cls-11{fill:#0092b6;}.cls-12{fill:#6a8cbf;}</style></defs><title>forecast</title><g id="Layer_2" data-name="Layer 2"><g id="Layer_1-2" data-name="Layer 1"><polygon class="cls-1" points="761.33 183.16 687.43 183.16 650.72 145.58 657.31 92.58 761.33 183.16"/><polygon class="cls-1" points="650.72 145.58 687.43 183.16 646.05 183.16 650.72 145.58"/><polygon class="cls-2" points="657.31 92.58 650.72 145.58 626.13 120.41 657.31 92.58"/><polygon class="cls-2" points="650.72 145.58 646.05 183.16 610.23 183.16 584.8 157.3 626.13 120.41 650.72 145.58"/><polygon class="cls-3" points="626.13 120.41 584.8 157.3 547.47 119.33 556.33 48.96 626.13 120.41"/><polygon class="cls-2" points="584.8 157.3 610.23 183.16 555.82 183.16 584.8 157.3"/><polygon class="cls-3" points="547.47 119.33 584.8 157.3 555.82 183.16 539.43 183.16 547.47 119.33"/><polygon class="cls-4" points="556.33 48.96 547.47 119.33 518.34 89.7 556.33 48.96"/><polygon class="cls-4" points="518.34 89.7 547.47 119.33 539.43 183.16 506.71 183.16 465.58 146.28 518.34 89.7"/><polygon class="cls-5" points="430.15 0 518.34 89.7 465.58 146.28 437.13 120.77 401.15 152.1 430.15 0"/><polygon class="cls-6" points="506.71 183.16 431.2 183.16 465.58 146.28 506.71 183.16"/><polygon class="cls-6" points="465.58 146.28 431.2 183.16 428.72 183.16 437.13 120.77 465.58 146.28"/><polygon class="cls-7" points="437.13 120.77 428.72 183.16 395.23 183.16 401.15 152.1 437.13 120.77"/><polygon class="cls-8" points="430.15 0 401.15 152.1 365.49 183.16 337.08 183.16 293.44 147.16 430.15 0"/><polygon class="cls-7" points="401.15 152.1 395.23 183.16 365.49 183.16 401.15 152.1"/><polygon class="cls-9" points="337.08 183.16 273.98 183.16 264.86 177.93 293.44 147.16 337.08 183.16"/><polygon class="cls-9" points="293.44 147.16 264.86 177.93 255.01 172.27 267.5 125.77 293.44 147.16"/><polygon class="cls-9" points="273.98 183.16 260 183.16 264.86 177.93 273.98 183.16"/><polygon class="cls-10" points="267.5 125.77 255.01 172.27 226.62 155.98 267.5 125.77"/><polygon class="cls-9" points="255.01 172.27 264.86 177.93 260 183.16 252.08 183.16 255.01 172.27"/><polygon class="cls-10" points="255.01 172.27 252.08 183.16 189.85 183.16 226.62 155.98 255.01 172.27"/><polygon class="cls-11" points="226.62 155.98 189.85 183.16 122.95 183.16 143.12 108.06 226.62 155.98"/><polygon class="cls-12" points="143.12 108.06 122.95 183.16 0 183.16 143.12 108.06"/></g></g></svg>